<svg xmlns="http://www.w3.org/2000/svg" xmlns:xlink="http://www.w3.org/1999/xlink" width="500" zoomAndPan="magnify" viewBox="0 0 375 374.999991" height="500" preserveAspectRatio="xMidYMid meet" version="1.0"><defs><clipPath id="e8d4fdbce9"><path d="M 1 95 L 126.75 95 L 126.75 264 L 1 264 Z M 1 95 " clip-rule="nonzero"/></clipPath><clipPath id="b617e85ebe"><path d="M 1 179.160156 L 373 179.160156 L 373 264 L 1 264 Z M 1 179.160156 " clip-rule="nonzero"/></clipPath><clipPath id="59a69b842c"><path d="M 150.050781 143.253906 L 225.050781 143.253906 L 225.050781 264 L 150.050781 264 Z M 150.050781 143.253906 " clip-rule="nonzero"/></clipPath><clipPath id="b60e05f0c3"><path d="M 325.402344 120.707031 L 373 120.707031 L 373 264 L 325.402344 264 Z M 325.402344 120.707031 " clip-rule="nonzero"/></clipPath><clipPath id="3498502617"><path d="M 225.203125 101.042969 L 267.414062 101.042969 L 267.414062 143.253906 L 225.203125 143.253906 Z M 225.203125 101.042969 " clip-rule="nonzero"/></clipPath><clipPath id="1a5edf456f"><path d="M 246.308594 101.042969 C 234.652344 101.042969 225.203125 110.492188 225.203125 122.148438 C 225.203125 133.804688 234.652344 143.253906 246.308594 143.253906 C 257.964844 143.253906 267.414062 133.804688 267.414062 122.148438 C 267.414062 110.492188 257.964844 101.042969 246.308594 101.042969 Z M 246.308594 101.042969 " clip-rule="nonzero"/></clipPath></defs><g clip-path="url(#e8d4fdbce9)"><path fill="#239d9d" d="M 1.589844 181.390625 C 0.101562 117.6875 69.617188 72.945312 130.636719 107.910156 C 150.738281 119.429688 167.800781 136.488281 186.148438 155.121094 C 186.984375 155.96875 187.367188 155.882812 188.148438 155.09375 C 216.847656 126.164062 258.402344 82.054688 316.605469 99.214844 C 341.101562 106.4375 358.121094 122.328125 366.839844 146.277344 C 396.027344 226.421875 312.308594 292.78125 240.519531 248.789062 C 222.414062 237.695312 206.777344 222.390625 188.292969 203.5625 C 187.304688 202.558594 186.859375 202.703125 185.960938 203.609375 C 164.960938 224.789062 142.355469 247.804688 114.4375 257.441406 C 57.621094 277.046875 3.15625 243.191406 1.589844 181.390625 Z M 37.140625 180.15625 C 38.953125 216.957031 67.257812 234.109375 97.417969 227.589844 C 123.480469 221.949219 145.347656 199.027344 163.96875 179.882812 C 164.597656 179.238281 164.246094 178.976562 163.816406 178.574219 C 147.640625 163.476562 131.84375 145.035156 111.9375 135.542969 C 73.351562 117.148438 37.011719 144.125 37.140625 180.160156 Z M 337.140625 178.601562 C 335.996094 143.039062 307.9375 123.660156 275.609375 131.242188 C 250.171875 137.210938 228.433594 160.023438 210.375 178.582031 C 209.746094 179.222656 209.988281 179.523438 210.5 180.003906 C 233.082031 201.074219 259.726562 234.347656 295.730469 228.28125 C 319.710938 224.242188 337.195312 203.355469 337.140625 178.601562 Z M 337.140625 178.601562 " fill-opacity="1" fill-rule="nonzero"/></g><g clip-path="url(#b617e85ebe)"><path fill="#239d9d" d="M 1.589844 181.390625 C 0.101562 117.6875 69.617188 72.945312 130.636719 107.910156 C 150.738281 119.429688 167.800781 136.488281 186.148438 155.121094 C 186.984375 155.96875 187.367188 155.882812 188.148438 155.09375 C 216.847656 126.164062 258.402344 82.054688 316.605469 99.214844 C 341.101562 106.4375 358.121094 122.328125 366.839844 146.277344 C 396.027344 226.421875 312.308594 292.78125 240.519531 248.789062 C 222.414062 237.695312 206.777344 222.390625 188.292969 203.5625 C 187.304688 202.558594 186.859375 202.703125 185.960938 203.609375 C 164.960938 224.789062 142.355469 247.804688 114.4375 257.441406 C 57.621094 277.046875 3.15625 243.191406 1.589844 181.390625 Z M 37.140625 180.15625 C 38.953125 216.957031 67.257812 234.109375 97.417969 227.589844 C 123.480469 221.949219 145.347656 199.027344 163.96875 179.882812 C 164.597656 179.238281 164.246094 178.976562 163.816406 178.574219 C 147.640625 163.476562 131.84375 145.035156 111.9375 135.542969 C 73.351562 117.148438 37.011719 144.125 37.140625 180.160156 Z M 337.140625 178.601562 C 335.996094 143.039062 307.9375 123.660156 275.609375 131.242188 C 250.171875 137.210938 228.433594 160.023438 210.375 178.582031 C 209.746094 179.222656 209.988281 179.523438 210.5 180.003906 C 233.082031 201.074219 259.726562 234.347656 295.730469 228.28125 C 319.710938 224.242188 337.195312 203.355469 337.140625 178.601562 Z M 337.140625 178.601562 " fill-opacity="1" fill-rule="nonzero"/></g><g clip-path="url(#59a69b842c)"><path fill="#239d9d" d="M 1.589844 181.390625 C 0.101562 117.6875 69.617188 72.945312 130.636719 107.910156 C 150.738281 119.429688 167.800781 136.488281 186.148438 155.121094 C 186.984375 155.96875 187.367188 155.882812 188.148438 155.09375 C 216.847656 126.164062 258.402344 82.054688 316.605469 99.214844 C 341.101562 106.4375 358.121094 122.328125 366.839844 146.277344 C 396.027344 226.421875 312.308594 292.78125 240.519531 248.789062 C 222.414062 237.695312 206.777344 222.390625 188.292969 203.5625 C 187.304688 202.558594 186.859375 202.703125 185.960938 203.609375 C 164.960938 224.789062 142.355469 247.804688 114.4375 257.441406 C 57.621094 277.046875 3.15625 243.191406 1.589844 181.390625 Z M 37.140625 180.15625 C 38.953125 216.957031 67.257812 234.109375 97.417969 227.589844 C 123.480469 221.949219 145.347656 199.027344 163.96875 179.882812 C 164.597656 179.238281 164.246094 178.976562 163.816406 178.574219 C 147.640625 163.476562 131.84375 145.035156 111.9375 135.542969 C 73.351562 117.148438 37.011719 144.125 37.140625 180.160156 Z M 337.140625 178.601562 C 335.996094 143.039062 307.9375 123.660156 275.609375 131.242188 C 250.171875 137.210938 228.433594 160.023438 210.375 178.582031 C 209.746094 179.222656 209.988281 179.523438 210.5 180.003906 C 233.082031 201.074219 259.726562 234.347656 295.730469 228.28125 C 319.710938 224.242188 337.195312 203.355469 337.140625 178.601562 Z M 337.140625 178.601562 " fill-opacity="1" fill-rule="nonzero"/></g><g clip-path="url(#b60e05f0c3)"><path fill="#239d9d" d="M 1.589844 181.390625 C 0.101562 117.6875 69.617188 72.945312 130.636719 107.910156 C 150.738281 119.429688 167.800781 136.488281 186.148438 155.121094 C 186.984375 155.96875 187.367188 155.882812 188.148438 155.09375 C 216.847656 126.164062 258.402344 82.054688 316.605469 99.214844 C 341.101562 106.4375 358.121094 122.328125 366.839844 146.277344 C 396.027344 226.421875 312.308594 292.78125 240.519531 248.789062 C 222.414062 237.695312 206.777344 222.390625 188.292969 203.5625 C 187.304688 202.558594 186.859375 202.703125 185.960938 203.609375 C 164.960938 224.789062 142.355469 247.804688 114.4375 257.441406 C 57.621094 277.046875 3.15625 243.191406 1.589844 181.390625 Z M 37.140625 180.15625 C 38.953125 216.957031 67.257812 234.109375 97.417969 227.589844 C 123.480469 221.949219 145.347656 199.027344 163.96875 179.882812 C 164.597656 179.238281 164.246094 178.976562 163.816406 178.574219 C 147.640625 163.476562 131.84375 145.035156 111.9375 135.542969 C 73.351562 117.148438 37.011719 144.125 37.140625 180.160156 Z M 337.140625 178.601562 C 335.996094 143.039062 307.9375 123.660156 275.609375 131.242188 C 250.171875 137.210938 228.433594 160.023438 210.375 178.582031 C 209.746094 179.222656 209.988281 179.523438 210.5 180.003906 C 233.082031 201.074219 259.726562 234.347656 295.730469 228.28125 C 319.710938 224.242188 337.195312 203.355469 337.140625 178.601562 Z M 337.140625 178.601562 " fill-opacity="1" fill-rule="nonzero"/></g><g clip-path="url(#3498502617)"><g clip-path="url(#1a5edf456f)"><path fill="#000000" d="M 225.203125 101.042969 L 267.414062 101.042969 L 267.414062 143.253906 L 225.203125 143.253906 Z M 225.203125 101.042969 " fill-opacity="1" fill-rule="nonzero"/></g></g></svg>