<svg xmlns="http://www.w3.org/2000/svg" xmlns:xlink="http://www.w3.org/1999/xlink" width="500" zoomAndPan="magnify" viewBox="0 0 375 374.999991" height="500" preserveAspectRatio="xMidYMid meet" version="1.0"><defs><clipPath id="4b9bb213fd"><path d="M 1 95 L 126.75 95 L 126.75 263 L 1 263 Z M 1 95 " clip-rule="nonzero"/></clipPath><clipPath id="1585bfd398"><path d="M 1 179.160156 L 373 179.160156 L 373 263 L 1 263 Z M 1 179.160156 " clip-rule="nonzero"/></clipPath><clipPath id="02d54dca01"><path d="M 150.050781 143.253906 L 225.050781 143.253906 L 225.050781 263 L 150.050781 263 Z M 150.050781 143.253906 " clip-rule="nonzero"/></clipPath><clipPath id="2a6dce8d3f"><path d="M 325.402344 120.707031 L 373 120.707031 L 373 263 L 325.402344 263 Z M 325.402344 120.707031 " clip-rule="nonzero"/></clipPath><clipPath id="70158953d5"><path d="M 225.203125 101.042969 L 267.414062 101.042969 L 267.414062 143.253906 L 225.203125 143.253906 Z M 225.203125 101.042969 " clip-rule="nonzero"/></clipPath><clipPath id="dfc5e1a12f"><path d="M 246.308594 101.042969 C 234.652344 101.042969 225.203125 110.492188 225.203125 122.148438 C 225.203125 133.804688 234.652344 143.253906 246.308594 143.253906 C 257.964844 143.253906 267.414062 133.804688 267.414062 122.148438 C 267.414062 110.492188 257.964844 101.042969 246.308594 101.042969 Z M 246.308594 101.042969 " clip-rule="nonzero"/></clipPath></defs><g clip-path="url(#4b9bb213fd)"><path fill="#000000" d="M 1.589844 181.347656 C 0.101562 117.667969 69.597656 72.945312 130.59375 107.894531 C 150.6875 119.410156 167.746094 136.460938 186.089844 155.085938 C 186.921875 155.933594 187.308594 155.847656 188.089844 155.058594 C 216.777344 126.144531 258.316406 82.050781 316.503906 99.203125 C 340.988281 106.421875 358.003906 122.308594 366.722656 146.246094 C 395.898438 226.355469 312.207031 292.6875 240.441406 248.714844 C 222.339844 237.625 206.710938 222.324219 188.230469 203.507812 C 187.246094 202.503906 186.800781 202.644531 185.898438 203.554688 C 164.90625 224.722656 142.308594 247.730469 114.398438 257.359375 C 57.601562 276.960938 3.15625 243.121094 1.589844 181.34375 Z M 37.128906 180.113281 C 38.9375 216.894531 67.238281 234.042969 97.386719 227.523438 C 123.441406 221.886719 145.300781 198.972656 163.917969 179.835938 C 164.542969 179.191406 164.191406 178.929688 163.761719 178.527344 C 147.589844 163.4375 131.800781 145.003906 111.898438 135.515625 C 73.328125 117.128906 37 144.09375 37.128906 180.113281 Z M 337.03125 178.558594 C 335.886719 143.007812 307.839844 123.636719 275.519531 131.21875 C 250.089844 137.183594 228.359375 159.988281 210.304688 178.535156 C 209.679688 179.179688 209.917969 179.480469 210.433594 179.957031 C 233.007812 201.019531 259.644531 234.277344 295.632812 228.21875 C 319.605469 224.179688 337.085938 203.300781 337.03125 178.558594 Z M 337.03125 178.558594 " fill-opacity="1" fill-rule="nonzero"/></g><g clip-path="url(#1585bfd398)"><path fill="#000000" d="M 1.589844 181.300781 C 0.101562 117.625 69.597656 72.898438 130.59375 107.847656 C 150.6875 119.363281 167.746094 136.417969 186.089844 155.042969 C 186.921875 155.890625 187.308594 155.800781 188.089844 155.015625 C 216.777344 126.097656 258.316406 82.003906 316.503906 99.160156 C 340.988281 106.378906 358.003906 122.261719 366.722656 146.199219 C 395.898438 226.3125 312.207031 292.640625 240.441406 248.671875 C 222.339844 237.582031 206.710938 222.28125 188.230469 203.464844 C 187.246094 202.457031 186.800781 202.601562 185.898438 203.511719 C 164.90625 224.675781 142.308594 247.683594 114.398438 257.316406 C 57.601562 276.914062 3.15625 243.074219 1.589844 181.300781 Z M 37.128906 180.066406 C 38.9375 216.851562 67.238281 233.996094 97.386719 227.476562 C 123.441406 221.84375 145.300781 198.929688 163.917969 179.792969 C 164.542969 179.148438 164.191406 178.886719 163.761719 178.484375 C 147.589844 163.390625 131.800781 144.957031 111.898438 135.46875 C 73.328125 117.085938 37 144.046875 37.128906 180.066406 Z M 337.03125 178.511719 C 335.886719 142.964844 307.839844 123.59375 275.519531 131.171875 C 250.089844 137.136719 228.359375 159.941406 210.304688 178.492188 C 209.679688 179.132812 209.917969 179.433594 210.433594 179.914062 C 233.007812 200.976562 259.644531 234.234375 295.632812 228.171875 C 319.605469 224.132812 337.085938 203.253906 337.03125 178.511719 Z M 337.03125 178.511719 " fill-opacity="1" fill-rule="nonzero"/></g><g clip-path="url(#02d54dca01)"><path fill="#000000" d="M 1.539062 181.316406 C 0.0507812 117.640625 69.546875 72.914062 130.542969 107.863281 C 150.640625 119.378906 167.699219 136.433594 186.039062 155.058594 C 186.875 155.90625 187.257812 155.816406 188.039062 155.03125 C 216.730469 126.113281 258.269531 82.019531 316.453125 99.175781 C 340.941406 106.394531 357.957031 122.277344 366.671875 146.214844 C 395.847656 226.328125 312.160156 292.65625 240.390625 248.6875 C 222.292969 237.597656 206.660156 222.296875 188.183594 203.480469 C 187.195312 202.472656 186.75 202.617188 185.851562 203.527344 C 164.855469 224.691406 142.261719 247.699219 114.351562 257.332031 C 57.554688 276.929688 3.105469 243.089844 1.542969 181.316406 Z M 37.078125 180.082031 C 38.890625 216.863281 67.1875 234.011719 97.335938 227.492188 C 123.394531 221.855469 145.25 198.945312 163.867188 179.808594 C 164.496094 179.164062 164.144531 178.902344 163.710938 178.5 C 147.542969 163.40625 131.753906 144.972656 111.851562 135.484375 C 73.28125 117.101562 36.949219 144.0625 37.078125 180.082031 Z M 336.984375 178.527344 C 335.835938 142.980469 307.789062 123.609375 275.46875 131.1875 C 250.042969 137.152344 228.308594 159.957031 210.257812 178.503906 C 209.628906 179.148438 209.871094 179.449219 210.382812 179.929688 C 232.957031 200.992188 259.59375 234.25 295.582031 228.1875 C 319.554688 224.148438 337.039062 203.269531 336.984375 178.527344 Z M 336.984375 178.527344 " fill-opacity="1" fill-rule="nonzero"/></g><g clip-path="url(#2a6dce8d3f)"><path fill="#000000" d="M 1.484375 181.324219 C -0.00390625 117.648438 69.492188 72.925781 130.488281 107.875 C 150.582031 119.390625 167.640625 136.441406 185.984375 155.066406 C 186.816406 155.914062 187.203125 155.828125 187.980469 155.039062 C 216.671875 126.121094 258.210938 82.027344 316.398438 99.183594 C 340.882812 106.402344 357.898438 122.289062 366.617188 146.226562 C 395.792969 226.335938 312.101562 292.667969 240.335938 248.695312 C 222.234375 237.605469 206.601562 222.304688 188.125 203.488281 C 187.140625 202.484375 186.695312 202.625 185.792969 203.535156 C 164.800781 224.703125 142.203125 247.710938 114.292969 257.339844 C 57.496094 276.941406 3.050781 243.101562 1.484375 181.324219 Z M 37.023438 180.089844 C 38.832031 216.875 67.128906 234.023438 97.28125 227.5 C 123.335938 221.867188 145.195312 198.953125 163.8125 179.816406 C 164.4375 179.171875 164.085938 178.910156 163.65625 178.507812 C 147.484375 163.417969 131.695312 144.984375 111.792969 135.496094 C 73.222656 117.109375 36.894531 144.074219 37.023438 180.09375 Z M 336.925781 178.535156 C 335.78125 142.988281 307.734375 123.617188 275.414062 131.199219 C 249.984375 137.160156 228.253906 159.96875 210.199219 178.515625 C 209.574219 179.160156 209.8125 179.460938 210.328125 179.9375 C 232.898438 201 259.539062 234.257812 295.527344 228.195312 C 319.5 224.160156 336.980469 203.28125 336.925781 178.539062 Z M 336.925781 178.535156 " fill-opacity="1" fill-rule="nonzero"/></g><g clip-path="url(#70158953d5)"><g clip-path="url(#dfc5e1a12f)"><path fill="#239d9d" d="M 225.203125 101.042969 L 267.414062 101.042969 L 267.414062 143.253906 L 225.203125 143.253906 Z M 225.203125 101.042969 " fill-opacity="1" fill-rule="nonzero"/></g></g></svg>